<svg xmlns="http://www.w3.org/2000/svg" width="400" height="400" viewBox="0 0 400 400">
    <!-- Círculo base -->
    <circle cx="200" cy="200" r="150" fill="none" stroke="#ecf0f1" stroke-width="30" />
    
    <!-- Segmentos PDCA -->
    <path d="M200 50 A150 150 0 0 1 350 200" fill="none" stroke="#3498db" stroke-width="30" />
    <path d="M350 200 A150 150 0 0 1 200 350" fill="none" stroke="#2ecc71" stroke-width="30" />
    <path d="M200 350 A150 150 0 0 1 50 200" fill="none" stroke="#f39c12" stroke-width="30" />
    <path d="M50 200 A150 150 0 0 1 200 50" fill="none" stroke="#e74c3c" stroke-width="30" />
    
    <!-- Textos PDCA -->
    <text x="200" y="80" text-anchor="middle" fill="#2c3e50" font-size="24" font-weight="bold">PLAN</text>
    <text x="320" y="200" text-anchor="middle" fill="#2c3e50" font-size="24" font-weight="bold">DO</text>
    <text x="200" y="320" text-anchor="middle" fill="#2c3e50" font-size="24" font-weight="bold">CHECK</text>
    <text x="80" y="200" text-anchor="middle" fill="#2c3e50" font-size="24" font-weight="bold">ACT</text>
    
    <!-- Seta de ciclo contínuo -->
    <path d="M200 20 C 220 20, 220 10, 240 10 L 240 0 L 260 20 L 240 40 L 240 30 C 220 30, 220 20, 200 20" fill="#2c3e50" />
</svg>
